<svg xmlns="http://www.w3.org/2000/svg" viewBox="0 0 512 512">
  <rect width="512" height="512" rx="96" fill="#4A7FA5"/>
  <!-- Left card -->
  <rect x="52" y="136" width="168" height="240" rx="18" fill="white" opacity="0.95"/>
  <!-- Right card -->
  <rect x="292" y="136" width="168" height="240" rx="18" fill="white" opacity="0.95"/>
  <!-- Text lines left -->
  <rect x="76" y="174" width="120" height="14" rx="7" fill="#4A7FA5" opacity="0.4"/>
  <rect x="76" y="204" width="92" height="14" rx="7" fill="#4A7FA5" opacity="0.4"/>
  <rect x="76" y="234" width="108" height="14" rx="7" fill="#4A7FA5" opacity="0.4"/>
  <rect x="76" y="264" width="80" height="14" rx="7" fill="#4A7FA5" opacity="0.25"/>
  <rect x="76" y="294" width="100" height="14" rx="7" fill="#4A7FA5" opacity="0.25"/>
  <!-- Text lines right -->
  <rect x="316" y="174" width="120" height="14" rx="7" fill="#4A7FA5" opacity="0.4"/>
  <rect x="316" y="204" width="92" height="14" rx="7" fill="#4A7FA5" opacity="0.4"/>
  <rect x="316" y="234" width="108" height="14" rx="7" fill="#4A7FA5" opacity="0.4"/>
  <rect x="316" y="264" width="80" height="14" rx="7" fill="#4A7FA5" opacity="0.25"/>
  <rect x="316" y="294" width="100" height="14" rx="7" fill="#4A7FA5" opacity="0.25"/>
  <!-- Connection arrow -->
  <line x1="228" y1="256" x2="284" y2="256" stroke="white" stroke-width="18" stroke-linecap="round"/>
  <polyline points="264,236 288,256 264,276" fill="none" stroke="white" stroke-width="18" stroke-linecap="round" stroke-linejoin="round"/>
  <!-- Highlight dot left card (selected item) -->
  <rect x="68" y="196" width="132" height="30" rx="8" fill="#4A7FA5" opacity="0.15"/>
  <!-- Checkmark right card (matched item) -->
  <circle cx="408" cy="322" r="22" fill="#4A9B6F"/>
  <polyline points="397,322 404,330 420,314" fill="none" stroke="white" stroke-width="5" stroke-linecap="round" stroke-linejoin="round"/>
</svg>
